<svg width="1520" height="1920" viewBox="0 0 1520 1920" fill="none" xmlns="http://www.w3.org/2000/svg">
<path d="M0 100C0 44.7715 44.7715 0 100 0H1420C1475.23 0 1520 44.7715 1520 100V1820C1520 1875.23 1475.23 1920 1420 1920H100C44.7715 1920 0 1875.23 0 1820V100Z" fill="url(#paint0_linear_79_184)"/>
<g filter="url(#filter0_df_79_184)">
<path d="M1208.89 1509.14C849.389 1628.14 232.297 1524.11 89.0928 1238.62C-54.1115 953.138 -50.8286 201.482 777.093 392.773C1150.89 479.139 1397.5 626.5 1463.59 789.124C1529.68 951.748 1568.39 1390.14 1208.89 1509.14Z" fill="white"/>
</g>
<g clip-path="url(#clip0_79_184)">
<path fill-rule="evenodd" clip-rule="evenodd" d="M514.908 1136.68V1080.7H553.488V1090.17H525.364V1102.61H551.424V1112.07H525.364V1127.21H554.4V1136.68H514.908ZM607.35 1080.7H626.547C629.887 1080.6 633.226 1080.96 636.466 1081.78C639.507 1082.74 642.218 1084.53 644.295 1086.95C646.578 1089.59 648.278 1092.67 649.282 1096.01C650.505 1100.31 651.074 1104.76 650.971 1109.23C651.053 1113.25 650.51 1117.27 649.362 1121.13C648.299 1124.81 646.4 1128.2 643.813 1131.02C641.746 1133.09 639.206 1134.63 636.413 1135.5C633.402 1136.38 630.271 1136.77 627.136 1136.68H607.35V1080.7ZM617.914 1090.17V1127.21H625.742C627.865 1127.29 629.989 1127.11 632.07 1126.68C633.664 1126.29 635.127 1125.49 636.306 1124.35C637.634 1122.81 638.556 1120.97 638.987 1118.98C639.778 1115.63 640.129 1112.19 640.032 1108.74C640.144 1105.39 639.792 1102.03 638.987 1098.77C638.422 1096.78 637.404 1094.94 636.011 1093.41C634.683 1092.07 632.999 1091.14 631.158 1090.73C628.313 1090.28 625.431 1090.1 622.552 1090.19L617.914 1090.17ZM703.841 1080.7H714.378V1111.05C714.288 1114.17 714.423 1117.3 714.78 1120.41C715.155 1122.57 716.286 1124.52 717.97 1125.93C719.948 1127.41 722.391 1128.14 724.861 1127.99C727.25 1128.17 729.622 1127.48 731.536 1126.03C732.984 1124.8 733.937 1123.09 734.217 1121.21C734.584 1118.05 734.736 1114.87 734.673 1111.69V1080.7H745.236V1110.19C745.367 1114.96 745.08 1119.73 744.379 1124.45C743.911 1127.01 742.835 1129.42 741.242 1131.48C739.61 1133.48 737.51 1135.04 735.129 1136.03C731.952 1137.3 728.545 1137.88 725.129 1137.75C721.277 1137.95 717.428 1137.32 713.841 1135.9C711.459 1134.81 709.379 1133.15 707.782 1131.07C706.354 1129.24 705.347 1127.12 704.833 1124.86C704.026 1120.16 703.684 1115.41 703.814 1110.65V1080.7H703.841ZM833.657 1116.04L843.845 1119.41C842.773 1124.71 840.029 1129.52 836.017 1133.14C832.083 1136.22 827.179 1137.81 822.182 1137.62C818.937 1137.72 815.709 1137.1 812.735 1135.8C809.761 1134.49 807.117 1132.54 804.997 1130.08C800.266 1124.2 797.879 1116.77 798.294 1109.23C798.294 1099.93 800.537 1092.7 805.024 1087.51C807.206 1084.98 809.93 1082.98 812.993 1081.64C816.055 1080.3 819.379 1079.67 822.719 1079.79C825.584 1079.68 828.443 1080.15 831.115 1081.2C833.787 1082.24 836.214 1083.82 838.242 1085.85C840.908 1088.77 842.757 1092.34 843.604 1096.2L833.202 1098.88C832.719 1096.22 831.359 1093.81 829.341 1092.02C827.358 1090.32 824.816 1089.43 822.209 1089.5C820.398 1089.45 818.601 1089.82 816.965 1090.6C815.329 1091.38 813.901 1092.54 812.799 1093.97C810.386 1096.95 809.179 1101.75 809.179 1108.42C809.179 1115.1 810.359 1120.54 812.745 1123.52C813.809 1124.96 815.206 1126.12 816.816 1126.91C818.426 1127.7 820.202 1128.09 821.995 1128.05C824.692 1128.08 827.294 1127.05 829.234 1125.18C831.542 1122.66 833.053 1119.52 833.577 1116.14L833.657 1116.04ZM943.741 1136.68H932.373L927.789 1123.94H906.877L902.533 1136.68H891.38L911.703 1080.7H922.856L943.741 1136.68ZM924.438 1114.48L917.199 1093.76L910.148 1114.48H924.438ZM999.507 1136.68V1090.17H984.091V1080.7H1025.38V1090.17H1010.02V1136.68H999.507ZM1075.78 1136.68V1080.7H1086.35V1136.68H1075.78ZM1138.09 1109.04C1137.96 1104.13 1138.77 1099.25 1140.48 1094.64C1141.64 1091.82 1143.29 1089.23 1145.36 1086.98C1147.22 1084.83 1149.51 1083.11 1152.09 1081.91C1155.63 1080.38 1159.46 1079.63 1163.32 1079.71C1166.77 1079.57 1170.21 1080.18 1173.4 1081.5C1176.6 1082.82 1179.46 1084.83 1181.79 1087.38C1186.4 1092.53 1188.71 1099.68 1188.71 1108.83C1188.71 1117.98 1186.39 1125.06 1181.76 1130.08C1179.46 1132.63 1176.62 1134.64 1173.45 1135.96C1170.28 1137.29 1166.86 1137.9 1163.43 1137.75C1159.97 1137.9 1156.53 1137.29 1153.34 1135.96C1150.15 1134.64 1147.29 1132.63 1144.95 1130.08C1140.4 1125.02 1138.09 1117.99 1138.09 1109.07V1109.04ZM1148.95 1108.66C1148.59 1113.8 1150.04 1118.91 1153.05 1123.09C1154.31 1124.62 1155.89 1125.86 1157.68 1126.71C1159.48 1127.56 1161.44 1128 1163.43 1128C1165.41 1128 1167.37 1127.56 1169.17 1126.71C1170.96 1125.86 1172.54 1124.62 1173.8 1123.09C1176.8 1118.82 1178.23 1113.65 1177.85 1108.45C1178.24 1103.35 1176.85 1098.27 1173.91 1094.08C1172.61 1092.58 1170.99 1091.38 1169.19 1090.55C1167.38 1089.73 1165.41 1089.3 1163.43 1089.3C1161.44 1089.3 1159.47 1089.73 1157.67 1090.55C1155.86 1091.38 1154.25 1092.58 1152.94 1094.08C1149.97 1098.3 1148.56 1103.41 1148.95 1108.56V1108.66ZM1240.8 1136.68V1080.7H1251.02L1272.46 1118.23V1080.7H1282.22V1136.68H1271.69L1250.56 1099.9V1136.68H1240.8Z" fill="#F58220"/>
<path fill-rule="evenodd" clip-rule="evenodd" d="M654.858 906.407C655.164 927.639 652.133 948.788 645.877 969.081C640.493 986.504 631.339 1002.53 619.066 1016.02C606.91 1029.13 591.864 1039.23 575.124 1045.51C555.7 1052.6 535.127 1056.03 514.452 1055.61C494.381 1055.98 474.385 1053.06 455.255 1046.98C439.227 1041.83 424.715 1032.8 413.001 1020.71C401.197 1007.94 392.539 992.595 387.719 975.89C381.72 954.938 378.874 933.209 379.274 911.419C378.99 890.575 382.021 869.818 388.255 849.925C393.692 832.66 402.843 816.794 415.066 803.442C427.254 790.369 442.29 780.279 459.008 773.955C478.495 766.767 499.154 763.285 519.921 763.688C539.708 763.356 559.418 766.226 578.288 772.185C594.302 777.298 608.807 786.285 620.514 798.349C632.448 810.996 641.27 826.251 646.279 842.901C652.43 863.496 655.361 884.917 654.966 906.407H654.858ZM592.658 909.302C592.768 895.76 591.565 882.24 589.066 868.931C587.074 857.875 582.909 847.325 576.813 837.889C571.065 829.262 563.113 822.33 553.783 817.81C542.491 812.755 530.196 810.335 517.83 810.733C503.326 810.733 491.181 813.414 481.502 818.775C472.006 823.83 463.888 831.127 457.855 840.033C451.662 849.383 447.363 859.857 445.201 870.861C442.713 883.215 441.482 895.789 441.528 908.39C441.433 922.334 442.663 936.256 445.201 949.968C447.187 961.166 451.311 971.878 457.346 981.519C462.929 990.122 470.79 997.007 480.054 1001.41C491.463 1006.31 503.81 1008.65 516.222 1008.25C530.726 1008.25 542.871 1005.56 552.55 1000.36C562.115 995.324 570.249 987.947 576.196 978.919C582.419 969.357 586.726 958.678 588.878 947.475C591.423 934.91 592.689 922.121 592.658 909.302ZM944.894 1030.58C944.93 1033.67 944.327 1036.73 943.124 1039.58C941.993 1042.08 940.326 1044.31 938.242 1046.1C936.157 1047.88 933.705 1049.19 931.06 1049.93C928.313 1050.72 925.471 1051.11 922.614 1051.11H897.359C892.758 1051.18 888.166 1050.68 883.686 1049.63C879.817 1048.53 876.226 1046.62 873.149 1044.03C869.478 1040.91 866.321 1037.23 863.792 1033.12C860.102 1027.38 856.719 1021.45 853.658 1015.35L781.27 883.487C777.06 875.606 772.824 867.135 768.454 858.074C764.084 849.013 760.223 840.14 756.765 831.589H756.309C756.935 842.062 757.399 852.498 757.703 862.899C757.998 873.247 758.159 884.023 758.159 895.067V1042.69C758.162 1044.1 757.732 1045.48 756.926 1046.63C755.76 1047.94 754.285 1048.94 752.636 1049.53C749.979 1050.48 747.214 1051.1 744.405 1051.38C739.956 1051.88 735.478 1052.11 731 1052.05C726.62 1052.1 722.241 1051.88 717.89 1051.38C715.139 1051.11 712.435 1050.49 709.847 1049.53C708.215 1049.02 706.788 1048.01 705.771 1046.63C705.012 1045.46 704.611 1044.09 704.619 1042.69V789.208C704.406 786.338 704.856 783.457 705.935 780.789C707.013 778.121 708.691 775.737 710.839 773.821C715.116 770.326 720.519 768.506 726.04 768.7H757.757C762.612 768.597 767.462 769.065 772.208 770.094C775.953 770.998 779.499 772.589 782.664 774.786C786.057 777.278 788.988 780.344 791.324 783.846C794.444 788.397 797.222 793.172 799.635 798.134L856.232 901.286C859.529 907.506 862.747 913.698 865.991 919.703C869.235 925.707 872.345 931.766 875.267 937.77C878.189 943.775 881.192 949.753 884.034 955.543C886.876 961.334 889.718 967.231 892.399 973.021H892.935C892.479 962.835 892.077 952.219 891.863 941.202C891.648 930.184 891.541 919.569 891.541 909.516V777.171C891.537 775.736 892.03 774.344 892.935 773.231C894.134 771.849 895.666 770.797 897.386 770.175C900.076 769.176 902.89 768.554 905.751 768.325C910.207 767.914 914.681 767.735 919.156 767.789C923.461 767.743 927.765 767.922 932.052 768.325C934.813 768.516 937.527 769.141 940.095 770.175C941.655 770.815 943.009 771.873 944.009 773.231C944.787 774.396 945.189 775.771 945.162 777.171V1030.58H944.894ZM1168.25 1026.72C1168.29 1030.4 1168.12 1034.07 1167.72 1037.73C1167.4 1040.23 1166.83 1042.69 1166.03 1045.08C1165.51 1046.74 1164.53 1048.21 1163.18 1049.31C1162.07 1050.2 1160.69 1050.67 1159.27 1050.65H1025.83C1021.3 1050.79 1016.88 1049.29 1013.37 1046.42C1009.99 1043.61 1008.3 1039 1008.3 1032.59V776.501C1008.3 775.053 1008.82 773.653 1009.78 772.561C1011.11 771.215 1012.77 770.236 1014.6 769.719C1017.59 768.867 1020.65 768.301 1023.74 768.03C1033.3 767.137 1042.92 767.137 1052.48 768.03C1055.52 768.315 1058.53 768.88 1061.47 769.719C1063.29 770.236 1064.95 771.215 1066.29 772.561C1067.24 773.653 1067.77 775.053 1067.77 776.501V1003.37H1159.24C1160.65 1003.33 1162.02 1003.75 1163.16 1004.57C1164.47 1005.58 1165.45 1006.95 1166 1008.51C1166.87 1010.83 1167.44 1013.26 1167.69 1015.72C1168.09 1019.37 1168.27 1023.04 1168.22 1026.72H1168.25ZM1280.21 943.614L1359.95 789.985C1362.1 786.007 1363.89 781.844 1365.31 777.547C1365.83 776.405 1365.99 775.132 1365.77 773.897C1365.55 772.662 1364.96 771.523 1364.08 770.631C1361.2 768.761 1357.83 767.782 1354.4 767.816C1349.7 767.441 1343.03 767.307 1334.5 767.307C1328.04 767.307 1322.81 767.441 1318.98 767.735C1315.84 767.901 1312.74 768.477 1309.76 769.451C1307.78 770.099 1306.03 771.287 1304.69 772.882C1303.39 774.537 1302.42 776.431 1301.85 778.458L1269.84 847.298C1266.99 853.999 1264.07 860.996 1261.07 868.421C1258.07 875.847 1255.17 883.433 1252.33 891.341H1251.85C1248.63 883.138 1245.55 875.418 1242.41 867.993C1239.27 860.567 1236.19 853.544 1233.05 846.869L1200.48 777.547C1199.57 775.765 1198.5 774.077 1197.26 772.507C1195.76 771.036 1193.92 769.959 1191.9 769.371C1188.72 768.429 1185.45 767.88 1182.14 767.735C1177.98 767.441 1172.54 767.307 1165.62 767.307C1157.42 767.307 1150.96 767.441 1146.35 767.816C1142.97 767.799 1139.66 768.778 1136.83 770.631C1135.94 771.49 1135.33 772.596 1135.09 773.806C1134.84 775.016 1134.96 776.273 1135.44 777.413C1136.88 781.77 1138.74 785.98 1140.99 789.985L1220.69 943.614V1042.8C1220.69 1044.23 1221.18 1045.63 1222.09 1046.74C1223.37 1048.16 1225.05 1049.15 1226.91 1049.58C1229.89 1050.37 1232.92 1050.94 1235.97 1051.27C1245.53 1052.16 1255.16 1052.16 1264.72 1051.27C1267.8 1050.96 1270.86 1050.39 1273.86 1049.58C1275.68 1049.06 1277.35 1048.09 1278.68 1046.74C1279.63 1045.64 1280.14 1044.24 1280.13 1042.8L1280.21 943.614Z" fill="#4F4B6A"/>
<path d="M309.754 760.069C330.736 760.069 347.745 742.942 347.745 721.816C347.745 700.689 330.736 683.562 309.754 683.562C288.773 683.562 271.764 700.689 271.764 721.816C271.764 742.942 288.773 760.069 309.754 760.069Z" stroke="#F58220" stroke-width="7" stroke-miterlimit="10"/>
<path fill-rule="evenodd" clip-rule="evenodd" d="M135.888 743.072C144.334 741.384 243.72 723.906 312.167 822.099C311.416 823.466 283.668 874.801 289.191 905.387C289.191 905.387 285.383 770.978 135.888 743.233V743.072Z" fill="#4F4B6A"/>
<path fill-rule="evenodd" clip-rule="evenodd" d="M365.064 675.439C365.064 675.439 372.812 686.886 364.769 711.897C364.769 711.897 357.852 675.761 326.35 668.014C294.848 660.267 273.051 677.048 267.018 687.234C267.018 687.234 268.976 658.31 289.11 648.767L220.315 615.232L314.661 613.141L442.949 676.11L363.214 674.501" fill="#4F4B6A"/>
<path fill-rule="evenodd" clip-rule="evenodd" d="M482.44 741.143C482.44 741.143 329.058 772.051 336.136 925.386C349.809 1078.18 484.612 1089.23 484.612 1089.23C484.612 1089.23 355.278 1106.76 303.4 991.92C283.962 948.404 281.542 899.185 296.617 853.973C338.79 726.882 482.44 741.143 482.44 741.143Z" fill="#F58220"/>
<path fill-rule="evenodd" clip-rule="evenodd" d="M442.788 680.906C442.788 680.906 435.415 682.032 436.112 723.341C438.505 724.648 441.187 725.333 443.914 725.333C446.64 725.333 449.323 724.648 451.716 723.341C451.716 723.341 453.003 685.624 442.788 680.906Z" fill="#4F4B6A"/>
<path fill-rule="evenodd" clip-rule="evenodd" d="M604.348 1061.11C619.655 1057.92 635.516 1058.61 650.488 1063.12C650.488 1063.12 674.966 1036.31 676.119 998.782C676.119 998.782 678.586 972.109 669.122 949.082C671.68 973.55 666.404 998.199 654.054 1019.48C633.437 1054.24 604.348 1061.11 604.348 1061.11Z" fill="#F58220"/>
<path fill-rule="evenodd" clip-rule="evenodd" d="M604.669 1061.05C604.669 1061.05 593.677 1063.74 579.628 1065.67Z" fill="#F58220"/>
<path d="M262.407 1231.73C258.597 1231.81 254.834 1230.89 251.495 1229.05C248.387 1227.33 245.83 1224.77 244.122 1221.65C242.31 1218.2 241.388 1214.35 241.441 1210.45V1194.79C241.405 1190.93 242.326 1187.12 244.122 1183.7C245.793 1180.58 248.312 1177.99 251.388 1176.24C254.727 1174.41 258.49 1173.48 262.3 1173.56C265.575 1173.54 268.812 1174.26 271.764 1175.68C274.589 1177.04 277.058 1179.04 278.976 1181.52C280.954 1184.15 282.294 1187.19 282.89 1190.42H274.391C273.866 1188.65 272.95 1187.01 271.71 1185.63C270.516 1184.27 269.056 1183.18 267.421 1182.41C265.824 1181.67 264.086 1181.29 262.327 1181.28C260.671 1181.22 259.022 1181.52 257.494 1182.15C255.965 1182.79 254.595 1183.76 253.479 1184.98C251.164 1187.71 249.975 1191.22 250.155 1194.79V1210.5C249.976 1214.07 251.165 1217.57 253.479 1220.29C254.595 1221.51 255.965 1222.48 257.494 1223.12C259.022 1223.75 260.671 1224.05 262.327 1223.99C264.958 1223.97 267.521 1223.14 269.673 1221.63C272.003 1220.01 273.654 1217.58 274.311 1214.82H282.863C282.261 1218.03 280.932 1221.07 278.976 1223.69C277.068 1226.19 274.609 1228.22 271.791 1229.62C268.871 1231.05 265.657 1231.77 262.407 1231.73Z" fill="#4F4B6A"/>
<path d="M294.016 1231.14V1174.04H302.408V1231.14H294.016ZM299.379 1206.83V1199.21H332.329V1206.83H299.379ZM328.039 1231.14V1174.04H336.404V1231.14H328.039Z" fill="#4F4B6A"/>
<path d="M370.748 1231.73C366.906 1231.8 363.11 1230.88 359.729 1229.05C356.633 1227.35 354.093 1224.79 352.41 1221.68C350.585 1218.28 349.662 1214.47 349.729 1210.61V1194.52C349.656 1190.66 350.58 1186.85 352.41 1183.45C354.094 1180.35 356.635 1177.8 359.729 1176.11C363.15 1174.38 366.929 1173.48 370.761 1173.48C374.594 1173.48 378.373 1174.38 381.794 1176.11C384.888 1177.8 387.429 1180.35 389.113 1183.45C390.943 1186.85 391.867 1190.66 391.794 1194.52V1210.61C391.861 1214.47 390.938 1218.28 389.113 1221.68C387.43 1224.79 384.89 1227.35 381.794 1229.05C378.403 1230.88 374.599 1231.8 370.748 1231.73ZM370.748 1223.85C372.414 1223.93 374.077 1223.65 375.629 1223.04C377.181 1222.43 378.587 1221.5 379.756 1220.31C380.907 1219.05 381.798 1217.58 382.378 1215.97C382.957 1214.36 383.215 1212.66 383.134 1210.96V1194.23C383.217 1192.52 382.962 1190.82 382.382 1189.21C381.802 1187.61 380.91 1186.13 379.756 1184.87C377.292 1182.64 374.086 1181.41 370.761 1181.41C367.437 1181.41 364.231 1182.64 361.767 1184.87C360.61 1186.13 359.713 1187.6 359.129 1189.21C358.544 1190.82 358.284 1192.52 358.362 1194.23V1210.96C358.285 1212.66 358.547 1214.37 359.131 1215.97C359.715 1217.58 360.611 1219.05 361.767 1220.31C362.93 1221.5 364.33 1222.44 365.877 1223.06C367.424 1223.68 369.083 1223.97 370.748 1223.9V1223.85Z" fill="#4F4B6A"/>
<path d="M423.323 1231.73C419.481 1231.8 415.685 1230.88 412.304 1229.05C409.22 1227.37 406.68 1224.84 404.985 1221.76C403.161 1218.36 402.238 1214.55 402.304 1210.69V1194.61C402.232 1190.75 403.155 1186.93 404.985 1183.53C406.67 1180.43 409.21 1177.89 412.304 1176.19C415.725 1174.46 419.504 1173.56 423.337 1173.56C427.169 1173.56 430.948 1174.46 434.369 1176.19C437.463 1177.89 440.004 1180.43 441.689 1183.53C443.519 1186.93 444.442 1190.75 444.37 1194.61V1210.69C444.436 1214.55 443.513 1218.36 441.689 1221.76C440.055 1224.9 437.551 1227.51 434.477 1229.27C431.034 1231.04 427.192 1231.89 423.323 1231.73ZM423.323 1223.85C424.989 1223.93 426.652 1223.65 428.204 1223.04C429.756 1222.43 431.163 1221.5 432.332 1220.31C433.483 1219.05 434.373 1217.58 434.953 1215.97C435.533 1214.37 435.79 1212.66 435.71 1210.96V1194.23C435.793 1192.53 435.537 1190.82 434.957 1189.21C434.377 1187.61 433.485 1186.13 432.332 1184.87C429.867 1182.64 426.661 1181.41 423.337 1181.41C420.012 1181.41 416.807 1182.64 414.342 1184.87C413.185 1186.13 412.289 1187.61 411.704 1189.21C411.12 1190.82 410.859 1192.52 410.937 1194.23V1210.96C410.861 1212.66 411.122 1214.37 411.706 1215.98C412.291 1217.58 413.186 1219.05 414.342 1220.31C415.505 1221.51 416.905 1222.44 418.452 1223.06C419.999 1223.68 421.658 1223.97 423.323 1223.91V1223.85Z" fill="#4F4B6A"/>
<path d="M474.102 1231.73C471.358 1231.74 468.619 1231.48 465.925 1230.96C463.447 1230.45 461.036 1229.66 458.74 1228.6C456.503 1227.55 454.404 1226.22 452.493 1224.66L457.694 1218.54C459.92 1220.4 462.463 1221.83 465.201 1222.78C468.069 1223.74 471.077 1224.22 474.102 1224.2C477.608 1224.4 481.097 1223.59 484.156 1221.87C485.273 1221.21 486.193 1220.26 486.821 1219.12C487.448 1217.99 487.759 1216.7 487.722 1215.41C487.785 1214.5 487.658 1213.58 487.349 1212.73C487.04 1211.87 486.555 1211.08 485.926 1210.42C484.589 1209.15 482.959 1208.23 481.18 1207.74C479.074 1207.15 476.934 1206.69 474.773 1206.35C472.52 1206 470.268 1205.54 467.963 1205.06C465.772 1204.58 463.659 1203.8 461.689 1202.73C459.76 1201.65 458.164 1200.07 457.078 1198.14C455.784 1195.67 455.182 1192.89 455.335 1190.1C455.208 1187.76 455.643 1185.41 456.604 1183.27C457.564 1181.12 459.023 1179.24 460.858 1177.77C465.422 1174.58 470.931 1173.03 476.488 1173.37C479.673 1173.38 482.838 1173.88 485.872 1174.85C489.062 1175.9 492.079 1177.42 494.827 1179.35L490.054 1185.71C487.972 1184.19 485.689 1182.97 483.271 1182.09C481.091 1181.33 478.798 1180.94 476.488 1180.93C473.162 1180.74 469.854 1181.55 466.998 1183.27C465.916 1183.98 465.037 1184.97 464.445 1186.12C463.853 1187.28 463.569 1188.56 463.619 1189.86C463.556 1190.77 463.699 1191.69 464.038 1192.54C464.377 1193.39 464.903 1194.15 465.577 1194.77C467.077 1195.98 468.839 1196.84 470.724 1197.26C472.842 1197.8 475.121 1198.31 477.561 1198.76C480.001 1199.22 481.931 1199.7 484.103 1200.29C486.208 1200.84 488.222 1201.7 490.081 1202.84C491.889 1203.97 493.375 1205.55 494.398 1207.42C495.564 1209.76 496.117 1212.36 496.006 1214.98C496.127 1217.33 495.667 1219.68 494.667 1221.81C493.666 1223.94 492.156 1225.79 490.269 1227.2C485.512 1230.42 479.839 1232.01 474.102 1231.73Z" fill="#4F4B6A"/>
<path d="M507.079 1231.14V1174.04H515.444V1231.14H507.079ZM511.128 1181.66V1174.04H545.391V1181.66H511.128ZM511.128 1206.61V1198.97H540.86V1206.61H511.128ZM511.128 1231.14V1223.53H545.391V1231.14H511.128Z" fill="#4F4B6A"/>
<path d="M599.549 1231.73C595.706 1231.8 591.911 1230.88 588.529 1229.05C585.434 1227.35 582.893 1224.79 581.21 1221.68C579.386 1218.28 578.463 1214.47 578.529 1210.61V1194.52C578.457 1190.66 579.38 1186.85 581.21 1183.45C582.895 1180.35 585.436 1177.8 588.529 1176.11C591.951 1174.38 595.729 1173.48 599.562 1173.48C603.394 1173.48 607.173 1174.38 610.594 1176.11C613.688 1177.8 616.229 1180.35 617.914 1183.45C619.744 1186.85 620.667 1190.66 620.595 1194.52V1210.61C620.661 1214.47 619.738 1218.28 617.914 1221.68C616.231 1224.79 613.69 1227.35 610.594 1229.05C607.204 1230.88 603.4 1231.8 599.549 1231.73ZM599.549 1223.85C601.214 1223.93 602.877 1223.65 604.43 1223.04C605.982 1222.43 607.388 1221.5 608.557 1220.31C609.708 1219.05 610.598 1217.58 611.178 1215.97C611.758 1214.36 612.015 1212.66 611.935 1210.96V1194.23C612.018 1192.52 611.762 1190.82 611.182 1189.21C610.603 1187.61 609.71 1186.13 608.557 1184.87C606.092 1182.64 602.886 1181.41 599.562 1181.41C596.238 1181.41 593.032 1182.64 590.567 1184.87C589.41 1186.13 588.514 1187.6 587.929 1189.21C587.345 1190.82 587.084 1192.52 587.162 1194.23V1210.96C587.086 1212.66 587.347 1214.37 587.931 1215.97C588.516 1217.58 589.411 1219.05 590.567 1220.31C591.73 1221.5 593.13 1222.44 594.677 1223.06C596.224 1223.68 597.884 1223.97 599.549 1223.9V1223.85Z" fill="#4F4B6A"/>
<path d="M633.223 1231.11V1174.04H640.917L670.087 1218.19L669.095 1219.21V1174.04H677.379V1231.11H669.604L640.515 1187.63L641.507 1186.62V1231.11H633.223Z" fill="#4F4B6A"/>
<path d="M692.044 1231.14V1174.04H700.409V1231.14H692.044ZM696.093 1181.66V1174.04H730.33V1181.66H696.093ZM696.093 1206.61V1198.97H725.826V1206.61H696.093ZM696.093 1231.14V1223.53H730.33V1231.14H696.093Z" fill="#4F4B6A"/>
<path d="M784.299 1231.73C780.498 1231.81 776.743 1230.89 773.414 1229.05C770.325 1227.33 767.801 1224.75 766.148 1221.62C764.324 1218.18 763.402 1214.32 763.467 1210.42V1194.76C763.396 1190.85 764.318 1186.99 766.148 1183.53C767.8 1180.4 770.323 1177.81 773.414 1176.08C776.743 1174.24 780.498 1173.32 784.299 1173.4C787.576 1173.42 790.804 1174.19 793.736 1175.65C796.566 1177.04 799.027 1179.08 800.922 1181.6C802.891 1184.23 804.23 1187.27 804.836 1190.5H796.417C795.903 1188.72 794.986 1187.08 793.736 1185.7C792.548 1184.34 791.086 1183.25 789.447 1182.49C787.851 1181.74 786.113 1181.36 784.353 1181.36C782.702 1181.3 781.056 1181.59 779.532 1182.23C778.008 1182.87 776.643 1183.84 775.532 1185.06C773.209 1187.79 772.011 1191.29 772.181 1194.87V1210.5C772.01 1214.07 773.209 1217.57 775.532 1220.28C776.643 1221.51 778.008 1222.47 779.532 1223.11C781.056 1223.75 782.702 1224.05 784.353 1223.98C786.985 1223.97 789.549 1223.14 791.699 1221.62C794.029 1220 795.68 1217.58 796.337 1214.82H804.916C804.294 1218.05 802.947 1221.1 800.975 1223.74C799.074 1226.25 796.614 1228.28 793.79 1229.67C790.834 1231.09 787.581 1231.8 784.299 1231.73Z" fill="#4F4B6A"/>
<path d="M815.936 1231.14V1174.04H824.301V1231.14H815.936ZM821.137 1206.83V1199.21H854.221V1206.83H821.137ZM849.797 1231.14V1174.04H858.082V1231.14H849.797Z" fill="#4F4B6A"/>
<path d="M892.667 1231.73C888.816 1231.8 885.013 1230.87 881.621 1229.05C878.525 1227.35 875.985 1224.79 874.302 1221.68C872.477 1218.28 871.554 1214.47 871.621 1210.61V1194.52C871.548 1190.66 872.472 1186.85 874.302 1183.45C875.987 1180.35 878.527 1177.8 881.621 1176.11C885.042 1174.38 888.821 1173.48 892.654 1173.48C896.486 1173.48 900.265 1174.38 903.686 1176.11C906.78 1177.8 909.321 1180.35 911.005 1183.45C912.836 1186.85 913.759 1190.66 913.687 1194.52V1210.61C913.753 1214.47 912.83 1218.28 911.005 1221.68C909.349 1224.87 906.795 1227.51 903.659 1229.27C900.266 1231.01 896.482 1231.86 892.667 1231.73ZM892.667 1223.85C894.329 1223.92 895.987 1223.65 897.535 1223.04C899.082 1222.43 900.484 1221.5 901.649 1220.31C902.809 1219.06 903.708 1217.58 904.293 1215.98C904.877 1214.37 905.136 1212.66 905.054 1210.96V1194.23C905.137 1192.52 904.88 1190.81 904.295 1189.21C903.71 1187.6 902.811 1186.13 901.649 1184.87C899.202 1182.62 895.996 1181.36 892.667 1181.36C889.339 1181.36 886.132 1182.62 883.686 1184.87C882.524 1186.13 881.624 1187.6 881.039 1189.21C880.455 1190.81 880.197 1192.52 880.281 1194.23V1210.96C880.198 1212.66 880.457 1214.37 881.042 1215.98C881.626 1217.58 882.525 1219.06 883.686 1220.31C884.846 1221.51 886.245 1222.45 887.793 1223.07C889.341 1223.68 891.002 1223.97 892.667 1223.9V1223.85Z" fill="#4F4B6A"/>
<path d="M945.243 1231.73C941.392 1231.8 937.589 1230.87 934.197 1229.05C931.101 1227.35 928.56 1224.79 926.878 1221.68C925.053 1218.28 924.13 1214.47 924.196 1210.61V1194.52C924.124 1190.66 925.047 1186.85 926.878 1183.45C928.562 1180.35 931.103 1177.8 934.197 1176.11C937.618 1174.38 941.397 1173.48 945.229 1173.48C949.062 1173.48 952.841 1174.38 956.262 1176.11C959.362 1177.79 961.905 1180.35 963.581 1183.45C965.411 1186.85 966.335 1190.66 966.262 1194.52V1210.61C966.329 1214.47 965.406 1218.28 963.581 1221.68C961.905 1224.79 959.363 1227.35 956.262 1229.05C952.881 1230.88 949.085 1231.8 945.243 1231.73ZM945.243 1223.85C946.908 1223.92 948.57 1223.64 950.121 1223.03C951.672 1222.42 953.079 1221.5 954.251 1220.31C955.402 1219.05 956.293 1217.58 956.872 1215.97C957.452 1214.36 957.709 1212.66 957.629 1210.96V1194.23C957.712 1192.52 957.456 1190.82 956.876 1189.21C956.297 1187.61 955.404 1186.13 954.251 1184.87C951.786 1182.64 948.58 1181.41 945.256 1181.41C941.932 1181.41 938.726 1182.64 936.261 1184.87C935.099 1186.13 934.2 1187.6 933.615 1189.21C933.03 1190.81 932.772 1192.52 932.856 1194.23V1210.96C932.774 1212.66 933.032 1214.37 933.617 1215.98C934.202 1217.58 935.101 1219.06 936.261 1220.31C937.421 1221.51 938.821 1222.45 940.369 1223.07C941.916 1223.68 943.577 1223.97 945.243 1223.9V1223.85Z" fill="#4F4B6A"/>
<path d="M995.995 1231.73C993.25 1231.74 990.511 1231.48 987.817 1230.96C985.348 1230.45 982.946 1229.66 980.659 1228.6C978.413 1227.55 976.306 1226.22 974.385 1224.66L979.613 1218.54C981.83 1220.4 984.364 1221.83 987.094 1222.78C989.962 1223.74 992.969 1224.22 995.995 1224.2C999.501 1224.41 1002.99 1223.6 1006.05 1221.87C1007.17 1221.21 1008.09 1220.26 1008.71 1219.12C1009.34 1217.99 1009.65 1216.7 1009.61 1215.41C1009.68 1214.5 1009.55 1213.58 1009.24 1212.73C1008.93 1211.87 1008.45 1211.08 1007.82 1210.42C1006.48 1209.15 1004.85 1208.23 1003.07 1207.74C1000.97 1207.15 998.827 1206.68 996.665 1206.35C994.413 1206 992.161 1205.54 989.882 1205.06C987.682 1204.58 985.561 1203.8 983.581 1202.73C981.658 1201.65 980.064 1200.06 978.97 1198.14C977.688 1195.66 977.087 1192.89 977.227 1190.1C977.107 1187.76 977.545 1185.42 978.505 1183.27C979.465 1181.13 980.92 1179.24 982.75 1177.77C987.314 1174.58 992.823 1173.03 998.381 1173.37C1001.57 1173.38 1004.73 1173.88 1007.76 1174.85C1010.96 1175.9 1013.97 1177.42 1016.72 1179.35L1011.97 1185.71C1009.88 1184.19 1007.59 1182.97 1005.16 1182.09C1002.98 1181.33 1000.69 1180.94 998.381 1180.93C995.054 1180.74 991.746 1181.55 988.89 1183.27C987.808 1183.98 986.929 1184.97 986.337 1186.12C985.746 1187.28 985.461 1188.56 985.512 1189.86C985.448 1190.77 985.591 1191.69 985.93 1192.54C986.269 1193.39 986.795 1194.15 987.469 1194.77C988.969 1195.98 990.731 1196.84 992.616 1197.26C994.734 1197.8 997.013 1198.31 999.453 1198.76C1001.89 1199.22 1003.82 1199.7 1006.02 1200.29C1008.12 1200.85 1010.12 1201.71 1011.97 1202.84C1013.79 1204 1015.27 1205.63 1016.26 1207.55C1017.43 1209.9 1017.98 1212.5 1017.87 1215.11C1017.99 1217.46 1017.53 1219.81 1016.53 1221.94C1015.53 1224.07 1014.02 1225.93 1012.13 1227.34C1007.37 1230.51 1001.71 1232.05 995.995 1231.73Z" fill="#4F4B6A"/>
<path d="M1028.97 1231.14V1174.04H1037.34V1231.14H1028.97ZM1033.05 1181.66V1174.04H1067.2V1181.66H1033.05ZM1033.05 1206.61V1198.97H1062.78V1206.61H1033.05ZM1033.05 1231.14V1223.53H1067.2V1231.14H1033.05Z" fill="#4F4B6A"/>
<path d="M1114.82 1218.81L1127.04 1174.04H1132.78L1144.95 1218.81L1155.68 1174.04H1164.36L1149.81 1231.14H1141.28L1130.29 1191.25L1118.68 1231.14H1110.1L1095.54 1174.04H1104.26L1114.82 1218.81Z" fill="#4F4B6A"/>
<path d="M1181.63 1174.04V1231.14H1173.27V1174.04H1181.63Z" fill="#4F4B6A"/>
<path d="M1214.31 1231.73C1211.57 1231.74 1208.83 1231.48 1206.14 1230.96C1203.66 1230.45 1201.24 1229.66 1198.95 1228.6C1196.71 1227.55 1194.61 1226.22 1192.7 1224.66L1197.9 1218.54C1200.13 1220.4 1202.67 1221.83 1205.41 1222.78C1208.28 1223.75 1211.29 1224.23 1214.31 1224.2C1217.82 1224.4 1221.31 1223.59 1224.37 1221.87C1225.48 1221.2 1226.4 1220.26 1227.02 1219.12C1227.65 1217.99 1227.96 1216.7 1227.93 1215.41C1227.99 1214.5 1227.86 1213.58 1227.55 1212.72C1227.23 1211.86 1226.74 1211.08 1226.11 1210.42C1224.78 1209.15 1223.16 1208.23 1221.39 1207.74C1219.28 1207.15 1217.13 1206.68 1214.96 1206.35C1212.73 1206 1210.45 1205.54 1208.17 1205.06C1205.97 1204.58 1203.85 1203.8 1201.87 1202.73C1199.95 1201.64 1198.36 1200.06 1197.26 1198.14C1195.98 1195.66 1195.38 1192.89 1195.52 1190.1C1195.4 1187.75 1195.84 1185.41 1196.8 1183.27C1197.77 1181.12 1199.23 1179.24 1201.07 1177.77C1205.62 1174.58 1211.12 1173.03 1216.67 1173.37C1219.87 1173.38 1223.04 1173.88 1226.08 1174.85C1229.26 1175.9 1232.27 1177.42 1235.01 1179.35L1230.26 1185.71C1228.18 1184.2 1225.9 1182.98 1223.48 1182.09C1221.29 1181.33 1218.99 1180.94 1216.67 1180.93C1213.35 1180.74 1210.04 1181.56 1207.18 1183.27C1206.1 1183.98 1205.22 1184.97 1204.63 1186.12C1204.04 1187.28 1203.75 1188.56 1203.8 1189.86C1203.74 1190.78 1203.89 1191.69 1204.24 1192.54C1204.58 1193.39 1205.11 1194.15 1205.79 1194.77C1207.29 1195.98 1209.05 1196.84 1210.93 1197.26C1213.05 1197.8 1215.33 1198.31 1217.74 1198.76C1220.16 1199.22 1222.11 1199.7 1224.31 1200.29C1226.42 1200.84 1228.43 1201.7 1230.29 1202.84C1232.09 1203.97 1233.57 1205.55 1234.58 1207.42C1235.76 1209.76 1236.32 1212.36 1236.22 1214.98C1236.33 1217.33 1235.87 1219.68 1234.86 1221.81C1233.86 1223.94 1232.34 1225.79 1230.45 1227.2C1225.71 1230.43 1220.04 1232.02 1214.31 1231.73Z" fill="#4F4B6A"/>
<path d="M1247.29 1231.14V1174.04H1255.65V1231.14H1247.29ZM1251.34 1181.66V1174.04H1285.57V1181.66H1251.34ZM1251.34 1206.61V1198.97H1281.07V1206.61H1251.34ZM1251.34 1231.14V1223.53H1285.57V1231.14H1251.34Z" fill="#4F4B6A"/>
<path d="M1297.48 1231.14V1174.04H1305.82V1231.14H1297.48ZM1301.66 1231.14V1223.53H1335.79V1231.14H1301.66Z" fill="#4F4B6A"/>
<path d="M1378.85 1174.04L1360.67 1207.82V1231.04H1352.31V1207.82L1334.13 1173.94H1343.35L1356.49 1199.78L1369.52 1174.02L1378.85 1174.04Z" fill="#4F4B6A"/>
</g>
<defs>
<filter id="filter0_df_79_184" x="14" y="359.9" width="1497.04" height="1205.68" filterUnits="userSpaceOnUse" color-interpolation-filters="sRGB">
<feFlood flood-opacity="0" result="BackgroundImageFix"/>
<feColorMatrix in="SourceAlpha" type="matrix" values="0 0 0 0 0 0 0 0 0 0 0 0 0 0 0 0 0 0 127 0" result="hardAlpha"/>
<feOffset dy="4"/>
<feGaussianBlur stdDeviation="2"/>
<feComposite in2="hardAlpha" operator="out"/>
<feColorMatrix type="matrix" values="0 0 0 0 0 0 0 0 0 0 0 0 0 0 0 0 0 0 0.25 0"/>
<feBlend mode="normal" in2="BackgroundImageFix" result="effect1_dropShadow_79_184"/>
<feBlend mode="normal" in="SourceGraphic" in2="effect1_dropShadow_79_184" result="shape"/>
<feGaussianBlur stdDeviation="1.05" result="effect2_foregroundBlur_79_184"/>
</filter>
<linearGradient id="paint0_linear_79_184" x1="760" y1="0" x2="760" y2="1920" gradientUnits="userSpaceOnUse">
<stop stop-color="#FFB779"/>
<stop offset="1" stop-color="white"/>
</linearGradient>
<clipPath id="clip0_79_184">
<rect width="1248" height="638" fill="white" transform="translate(135.888 613.141)"/>
</clipPath>
</defs>
</svg>
